<?xml version="1.0" encoding="UTF-8" ?>
<!DOCTYPE svg PUBLIC "-//W3C//DTD SVG 1.1//EN" "http://www.w3.org/Graphics/SVG/1.1/DTD/svg11.dtd">
<svg width="108pt" height="108pt" viewBox="0 0 108 108" version="1.1" xmlns="http://www.w3.org/2000/svg">
<g id="#ffffffff">
<path fill="#ffffff" opacity="1.00" d=" M 0.00 0.00 L 108.00 0.00 L 108.00 108.00 L 0.00 108.00 L 0.00 0.00 M 85.37 21.64 C 85.53 22.16 85.86 23.19 86.03 23.71 C 85.39 23.68 84.11 23.63 83.47 23.60 C 83.59 24.15 83.82 25.25 83.94 25.80 C 83.32 25.74 82.09 25.63 81.48 25.58 C 81.57 26.14 81.77 27.27 81.86 27.83 C 81.28 27.75 80.11 27.59 79.53 27.50 C 79.60 28.09 79.75 29.27 79.83 29.85 C 79.26 29.76 78.12 29.58 77.54 29.49 C 77.62 30.08 77.78 31.26 77.85 31.86 C 77.26 31.78 76.08 31.62 75.49 31.55 C 75.58 32.12 75.76 33.26 75.86 33.84 C 75.27 33.75 74.11 33.59 73.53 33.50 C 73.60 34.10 73.74 35.28 73.81 35.88 C 73.25 35.77 72.12 35.57 71.56 35.47 C 71.63 36.06 71.78 37.26 71.85 37.85 C 71.26 37.78 70.07 37.63 69.48 37.55 C 69.58 38.12 69.77 39.26 69.86 39.82 C 69.28 39.75 68.11 39.59 67.52 39.52 C 67.60 40.10 67.75 41.28 67.82 41.86 C 67.25 41.77 66.12 41.58 65.55 41.48 C 65.63 42.07 65.78 43.26 65.85 43.85 C 65.26 43.78 64.07 43.63 63.47 43.55 C 63.57 44.12 63.77 45.26 63.87 45.82 C 63.28 45.75 62.11 45.59 61.52 45.52 C 61.60 46.10 61.75 47.27 61.82 47.86 C 61.25 47.77 60.12 47.58 59.55 47.48 C 59.62 48.08 59.78 49.27 59.85 49.86 C 59.26 49.78 58.09 49.62 57.50 49.54 C 57.59 50.11 57.77 51.27 57.86 51.84 C 57.27 51.76 56.11 51.60 55.52 51.52 C 55.60 52.10 55.76 53.28 55.84 53.86 C 55.26 53.77 54.11 53.59 53.54 53.50 C 53.62 54.09 53.78 55.27 53.86 55.86 C 53.27 55.78 52.09 55.62 51.50 55.54 C 51.59 56.12 51.77 57.26 51.86 57.84 C 51.28 57.76 50.11 57.60 49.52 57.52 C 49.60 58.11 49.76 59.28 49.83 59.87 C 49.26 59.77 48.12 59.59 47.54 59.49 C 47.62 60.09 47.78 61.27 47.85 61.86 C 47.27 61.78 46.10 61.61 45.52 61.53 C 45.60 62.11 45.76 63.29 45.84 63.87 C 45.27 63.78 44.13 63.59 43.56 63.49 C 43.63 64.07 43.76 65.22 43.83 65.80 C 42.61 65.70 41.40 65.70 40.18 65.81 C 40.24 65.22 40.36 64.05 40.42 63.47 C 39.86 63.57 38.74 63.76 38.17 63.86 C 38.26 63.28 38.42 62.12 38.50 61.54 C 37.92 61.62 36.74 61.78 36.15 61.86 C 36.23 61.26 36.37 60.07 36.44 59.47 C 35.88 59.57 34.74 59.76 34.18 59.85 C 34.26 59.27 34.41 58.10 34.49 57.51 C 33.91 57.59 32.75 57.75 32.17 57.83 C 32.25 57.25 32.41 56.10 32.49 55.52 C 31.91 55.60 30.74 55.77 30.16 55.85 C 30.24 55.26 30.39 54.09 30.47 53.50 C 29.90 53.59 28.75 53.75 28.17 53.84 C 28.25 53.25 28.40 52.09 28.48 51.50 C 27.89 51.58 26.72 51.74 26.13 51.82 C 26.23 51.26 26.44 50.14 26.54 49.58 C 25.93 49.64 24.70 49.75 24.09 49.81 C 24.19 49.25 24.40 48.14 24.51 47.58 C 23.88 47.61 22.61 47.66 21.98 47.69 C 22.15 47.18 22.49 46.16 22.66 45.65 C 18.21 44.98 16.67 50.25 13.24 52.11 C 13.23 53.39 13.23 54.66 13.25 55.94 C 16.38 58.39 18.94 61.45 21.81 64.18 C 27.86 70.42 34.31 76.28 40.09 82.76 C 41.36 82.78 42.64 82.79 43.91 82.78 C 44.46 82.04 45.04 81.34 45.68 80.68 C 60.39 66.05 75.02 51.34 89.70 36.68 C 91.35 35.05 92.89 33.29 94.77 31.91 C 94.78 30.63 94.77 29.34 94.75 28.06 C 91.32 26.23 89.80 20.99 85.37 21.64 Z" />
</g>
</svg>
