<?xml version="1.0" encoding="UTF-8" ?>
<!DOCTYPE svg PUBLIC "-//W3C//DTD SVG 1.1//EN" "http://www.w3.org/Graphics/SVG/1.1/DTD/svg11.dtd">
<svg width="1000pt" height="864pt" viewBox="0 0 1000 864" version="1.1" xmlns="http://www.w3.org/2000/svg">
<g id="#ffffffff">
<path fill="#ffffff" opacity="1.00" d=" M 460.00 0.00 L 538.90 0.00 C 691.77 266.02 844.43 532.17 997.25 798.23 C 984.62 820.15 972.11 842.14 959.39 864.00 L 38.30 864.00 C 26.08 842.74 13.87 821.49 1.65 800.23 C 154.79 533.49 307.93 266.75 461.07 0.01 L 460.00 0.00 M 498.84 65.51 C 498.62 66.09 498.17 67.23 497.95 67.80 C 495.51 71.79 493.31 75.92 490.86 79.90 C 489.58 82.25 488.29 84.60 486.85 86.86 C 485.57 89.21 484.28 91.56 482.85 93.83 C 480.62 97.88 478.30 101.90 475.91 105.86 C 475.66 106.33 475.14 107.28 474.89 107.75 C 473.91 109.48 472.92 111.21 471.87 112.90 C 470.59 115.25 469.29 117.61 467.85 119.87 C 466.57 122.22 465.29 124.58 463.85 126.83 C 462.58 129.19 461.28 131.53 459.85 133.79 C 458.57 136.14 457.27 138.49 455.86 140.76 C 454.91 142.50 453.92 144.21 452.89 145.89 C 451.59 148.25 450.30 150.61 448.86 152.88 C 447.89 154.63 446.76 156.32 446.10 158.22 C 447.18 160.61 448.61 162.82 449.87 165.13 C 451.29 167.40 452.59 169.75 453.88 172.11 C 456.27 176.10 458.57 180.16 460.86 184.22 C 462.28 186.49 463.58 188.83 464.86 191.19 C 466.28 193.45 467.58 195.79 468.85 198.14 C 470.28 200.40 471.58 202.74 472.86 205.10 C 475.27 209.10 477.59 213.15 479.85 217.23 C 481.27 219.50 482.57 221.84 483.86 224.20 C 485.28 226.46 486.57 228.80 487.85 231.16 C 489.29 233.41 490.58 235.75 491.85 238.11 C 493.29 240.39 494.60 242.74 495.89 245.11 C 498.28 249.10 500.61 253.13 502.85 257.21 C 504.28 259.47 505.58 261.81 506.86 264.17 C 508.28 266.43 509.58 268.77 510.85 271.12 C 512.30 273.41 513.60 275.77 514.90 278.14 C 517.29 282.12 519.57 286.17 521.86 290.20 C 523.27 292.47 524.57 294.82 525.85 297.17 C 527.27 299.43 528.57 301.78 529.86 304.13 C 531.28 306.40 532.59 308.74 533.87 311.10 C 536.26 315.11 538.60 319.14 540.85 323.23 C 542.27 325.50 543.57 327.84 544.86 330.20 C 546.28 332.45 547.57 334.79 548.85 337.14 C 550.28 339.41 551.58 341.75 552.85 344.11 C 554.30 346.38 555.60 348.74 556.89 351.11 C 559.28 355.10 561.61 359.12 563.86 363.20 C 565.28 365.46 566.57 367.80 567.85 370.16 C 569.29 372.42 570.58 374.76 571.85 377.12 C 573.30 379.40 574.60 381.75 575.89 384.12 C 578.59 388.44 580.87 393.00 583.66 397.27 L 583.60 398.03 C 584.98 399.54 585.91 401.37 586.86 403.17 C 588.28 405.43 589.57 407.77 590.85 410.12 C 595.94 418.76 600.91 427.47 605.86 436.18 C 607.28 438.45 608.58 440.79 609.86 443.14 C 611.28 445.40 612.58 447.74 613.86 450.10 C 615.10 452.11 616.26 454.16 617.44 456.21 C 617.88 457.19 618.34 458.17 618.81 459.15 C 620.30 461.38 621.58 463.74 622.87 466.10 C 624.30 468.39 625.62 470.75 626.92 473.12 C 628.14 475.18 629.33 477.26 630.66 479.26 L 630.60 480.02 C 631.98 481.52 632.90 483.36 633.85 485.15 C 635.28 487.41 636.58 489.75 637.86 492.10 C 640.27 496.10 642.56 500.16 644.86 504.22 C 646.28 506.48 647.58 508.81 648.86 511.16 C 650.28 513.42 651.58 515.76 652.86 518.11 C 655.27 522.10 657.59 526.14 659.86 530.23 C 661.28 532.48 662.57 534.82 663.85 537.17 C 665.28 539.43 666.58 541.77 667.86 544.12 C 669.30 546.40 670.61 548.75 671.89 551.12 C 674.28 555.10 676.62 559.11 678.86 563.18 C 680.27 565.44 681.58 567.77 682.85 570.12 C 684.28 572.40 685.60 574.75 686.89 577.12 C 689.27 581.11 691.61 585.13 693.86 589.20 C 695.28 591.46 696.58 593.79 697.86 596.14 C 701.60 602.44 705.26 608.80 708.86 615.20 C 710.28 617.45 711.57 619.79 712.85 622.14 C 714.28 624.40 715.58 626.75 716.86 629.10 C 719.27 633.09 721.56 637.15 723.86 641.21 C 725.28 643.47 726.57 645.80 727.85 648.16 C 729.28 650.41 730.58 652.75 731.86 655.11 C 735.60 661.42 739.26 667.77 742.86 674.17 C 744.29 676.42 745.58 678.77 746.86 681.12 C 747.91 682.80 748.90 684.52 749.86 686.27 C 751.66 689.14 753.18 692.18 755.01 695.05 C 755.70 696.00 755.71 697.19 755.92 698.33 C 675.59 698.18 595.26 698.30 514.94 698.18 C 514.67 698.60 514.14 699.43 513.88 699.85 C 512.63 702.24 511.31 704.60 509.86 706.88 C 508.58 709.24 507.29 711.59 505.85 713.85 C 504.57 716.20 503.29 718.55 501.85 720.81 C 500.57 723.15 499.28 725.51 497.85 727.77 C 496.57 730.12 495.27 732.46 493.85 734.74 C 492.90 736.48 491.91 738.21 490.86 739.90 C 489.57 742.24 488.29 744.59 486.86 746.86 C 482.92 753.86 478.91 760.82 474.85 767.75 C 473.90 769.49 472.92 771.21 471.87 772.90 C 470.58 775.25 469.30 777.61 467.85 779.88 C 466.57 782.22 465.29 784.57 463.85 786.83 C 462.58 789.18 461.28 791.52 459.86 793.79 C 458.27 796.77 456.39 799.59 455.02 802.69 C 611.72 802.69 768.43 802.78 925.14 802.64 C 923.39 798.88 921.05 795.46 919.14 791.80 C 917.71 789.53 916.42 787.19 915.15 784.84 C 913.70 782.58 912.41 780.23 911.14 777.87 C 909.70 775.59 908.38 773.24 907.11 770.87 C 904.71 766.89 902.38 762.86 900.14 758.79 C 898.71 756.52 897.41 754.18 896.15 751.83 C 894.71 749.57 893.42 747.22 892.14 744.88 C 889.37 740.26 886.71 735.57 884.08 730.87 C 883.04 729.19 882.06 727.49 881.13 725.78 C 879.72 723.50 878.42 721.16 877.15 718.82 C 875.72 716.54 874.41 714.21 873.14 711.86 C 871.71 709.59 870.41 707.24 869.13 704.90 C 865.39 698.58 861.73 692.20 858.14 685.80 C 856.71 683.53 855.41 681.19 854.15 678.85 C 852.71 676.58 851.41 674.24 850.14 671.89 C 846.40 665.57 842.74 659.20 839.14 652.80 C 837.72 650.53 836.42 648.19 835.14 645.84 C 833.71 643.57 832.41 641.23 831.15 638.88 C 829.71 636.60 828.39 634.25 827.11 631.88 C 825.68 629.59 824.37 627.23 823.07 624.87 C 822.04 623.20 821.06 621.50 820.13 619.78 C 818.71 617.51 817.42 615.18 816.15 612.83 C 814.72 610.56 813.42 608.22 812.15 605.87 C 810.70 603.60 809.40 601.25 808.13 598.90 C 803.08 590.25 798.06 581.59 793.15 572.86 C 791.71 570.59 790.41 568.24 789.13 565.88 C 787.69 563.61 786.39 561.26 785.12 558.90 C 784.07 557.21 783.07 555.49 782.10 553.77 C 781.85 553.30 781.34 552.35 781.08 551.88 C 780.04 550.21 779.06 548.52 778.13 546.80 C 776.72 544.53 775.41 542.19 774.15 539.84 C 772.71 537.58 771.41 535.23 770.14 532.87 C 768.70 530.59 767.38 528.24 766.11 525.88 C 763.72 521.88 761.38 517.87 759.14 513.79 C 757.71 511.52 756.41 509.18 755.15 506.83 C 753.71 504.57 752.41 502.22 751.15 499.88 C 749.70 497.60 748.40 495.25 747.13 492.90 C 745.69 490.60 744.38 488.23 743.08 485.87 C 742.04 484.20 741.06 482.50 740.13 480.78 C 738.72 478.51 737.42 476.17 736.15 473.83 C 734.72 471.56 733.41 469.22 732.15 466.87 C 730.71 464.60 729.42 462.26 728.14 459.91 C 725.73 455.91 723.43 451.84 721.14 447.77 C 719.72 445.50 718.42 443.15 717.14 440.80 C 715.71 438.54 714.42 436.20 713.15 433.86 C 711.72 431.59 710.41 429.24 709.14 426.88 C 707.70 424.61 706.40 422.27 705.13 419.91 C 702.72 415.92 700.40 411.88 698.14 407.80 C 696.71 405.53 695.42 403.19 694.15 400.84 C 692.70 398.58 691.41 396.23 690.14 393.87 C 688.69 391.59 687.38 389.23 686.11 386.86 C 684.67 384.58 683.36 382.23 682.09 379.87 C 679.70 375.90 677.38 371.89 675.15 367.84 C 673.71 365.57 672.43 363.23 671.15 360.88 C 670.09 359.20 669.10 357.48 668.15 355.74 C 667.88 355.27 667.35 354.34 667.08 353.87 C 665.68 351.57 664.38 349.23 663.09 346.88 C 662.05 345.20 661.07 343.50 660.14 341.78 C 658.71 339.50 657.42 337.16 656.14 334.80 C 654.71 332.54 653.41 330.21 652.15 327.86 C 650.71 325.59 649.41 323.25 648.13 320.89 C 645.72 316.90 643.43 312.83 641.12 308.77 C 640.86 308.30 640.33 307.34 640.07 306.87 C 639.04 305.21 638.06 303.52 637.13 301.81 C 635.72 299.53 634.42 297.19 633.15 294.85 C 631.71 292.58 630.40 290.24 629.14 287.88 C 627.70 285.59 626.38 283.23 625.10 280.86 C 622.71 276.87 620.38 272.86 618.14 268.79 C 616.71 266.53 615.42 264.18 614.15 261.83 C 612.71 259.57 611.42 257.23 610.15 254.88 C 608.70 252.59 607.40 250.22 606.08 247.86 C 603.73 243.85 601.38 239.85 599.14 235.78 C 597.71 233.52 596.42 231.18 595.15 228.83 C 593.72 226.56 592.42 224.22 591.14 221.87 C 589.71 219.60 588.41 217.25 587.13 214.90 C 583.39 208.58 579.74 202.21 576.14 195.81 C 574.72 193.54 573.42 191.20 572.15 188.86 C 570.71 186.59 569.41 184.24 568.14 181.88 C 566.70 179.62 565.39 177.27 564.12 174.91 C 563.07 173.22 562.08 171.50 561.14 169.76 C 559.72 167.49 558.42 165.15 557.14 162.80 C 555.72 160.54 554.42 158.20 553.15 155.85 C 551.71 153.58 550.41 151.23 549.14 148.88 C 547.70 146.59 546.39 144.24 545.11 141.87 C 542.71 137.89 540.38 133.86 538.14 129.79 C 536.72 127.52 535.41 125.18 534.14 122.83 C 532.71 120.57 531.42 118.22 530.15 115.88 C 528.70 113.60 527.39 111.24 526.11 108.87 C 523.72 104.88 521.40 100.84 519.13 96.78 C 517.48 94.13 516.09 91.32 514.33 88.74 L 514.42 87.98 C 513.02 86.49 512.07 84.66 511.14 82.86 C 509.72 80.59 508.41 78.25 507.14 75.90 C 505.00 72.27 502.76 68.69 500.90 64.91 C 500.39 65.06 499.36 65.36 498.84 65.51 M 396.99 243.41 C 392.46 250.78 388.37 258.42 383.93 265.85 C 382.61 268.18 381.32 270.53 379.92 272.82 C 374.96 281.52 369.97 290.21 364.93 298.87 C 357.30 312.21 349.64 325.54 341.93 338.84 C 340.61 341.17 339.31 343.51 337.92 345.80 C 332.96 354.51 327.97 363.19 322.93 371.86 C 316.62 382.87 310.31 393.89 303.93 404.86 C 296.30 418.21 288.63 431.53 280.93 444.83 C 279.61 447.16 278.31 449.51 276.91 451.80 C 270.63 462.83 264.28 473.82 257.92 484.81 C 252.96 493.51 247.97 502.20 242.93 510.85 C 236.63 521.88 230.31 532.88 223.93 543.86 C 222.61 546.19 221.32 548.54 219.93 550.83 C 213.63 561.85 207.30 572.86 200.93 583.84 C 194.62 594.86 188.31 605.88 181.92 616.85 C 180.61 619.18 179.32 621.53 177.92 623.81 C 172.96 632.51 167.98 641.20 162.93 649.86 C 161.61 652.19 160.32 654.54 158.92 656.83 C 146.29 678.86 133.63 700.87 120.92 722.86 C 114.62 733.87 108.31 744.88 101.93 755.85 C 100.61 758.18 99.32 760.53 97.92 762.82 C 92.96 771.52 87.97 780.21 82.93 788.86 C 81.61 791.19 80.32 793.54 78.93 795.83 C 77.64 798.07 76.37 800.33 75.11 802.61 C 169.26 802.78 263.42 802.63 357.57 802.68 C 361.87 795.58 365.84 788.29 370.07 781.15 C 376.37 770.13 382.69 759.12 389.07 748.15 C 390.38 745.81 391.68 743.46 393.08 741.18 C 398.04 732.47 403.03 723.79 408.07 715.14 C 409.38 712.80 410.68 710.46 412.07 708.17 C 413.79 704.85 416.13 701.82 417.29 698.23 C 375.18 698.08 333.07 698.11 290.96 698.11 C 275.05 697.97 259.11 698.37 243.21 697.75 C 243.85 696.90 244.49 696.05 245.12 695.21 C 246.34 692.81 247.67 690.47 249.08 688.18 C 254.04 679.48 259.03 670.80 264.07 662.15 C 270.38 651.14 276.70 640.14 283.07 629.17 C 285.89 624.31 288.54 619.35 291.57 614.62 C 398.67 614.80 505.77 614.84 612.87 614.91 C 609.55 608.39 605.60 602.22 602.08 595.82 C 600.68 593.53 599.38 591.19 598.07 588.86 C 594.37 582.53 590.70 576.18 587.08 569.80 C 585.68 567.52 584.39 565.17 583.07 562.85 C 578.03 554.20 573.04 545.52 568.07 536.83 C 563.03 528.19 558.03 519.52 553.08 510.83 C 548.04 502.18 543.04 493.50 538.08 484.81 C 536.68 482.53 535.38 480.19 534.07 477.86 C 529.03 469.21 524.04 460.54 519.07 451.85 C 514.02 443.20 509.04 434.52 504.07 425.83 C 499.03 417.19 494.03 408.52 489.07 399.83 C 484.04 391.18 479.04 382.51 474.08 373.82 C 472.68 371.53 471.38 369.19 470.07 366.86 C 466.36 360.53 462.70 354.18 459.08 347.80 C 457.68 345.52 456.38 343.17 455.07 340.85 C 450.02 332.20 445.04 323.52 440.07 314.83 C 430.03 297.52 420.04 280.18 410.08 262.82 C 408.68 260.53 407.38 258.19 406.07 255.86 C 403.70 251.72 401.13 247.70 399.04 243.41 C 398.53 243.41 397.50 243.41 396.99 243.41 Z" />
<path fill="#ffffff" opacity="1.00" d=" M 389.07 445.16 C 393.67 436.99 398.48 428.94 403.05 420.76 C 403.66 421.89 404.29 423.02 404.93 424.16 C 409.98 432.79 414.95 441.48 419.93 450.16 C 424.97 458.81 429.96 467.48 434.93 476.17 C 439.97 484.82 444.96 493.49 449.92 502.17 C 451.31 504.46 452.61 506.80 453.93 509.14 C 457.65 515.46 461.27 521.85 464.96 528.20 C 465.34 528.94 465.73 529.70 466.12 530.47 C 424.04 530.50 381.97 530.36 339.89 530.39 C 343.70 524.02 347.28 517.52 351.07 511.14 C 352.38 508.80 353.68 506.46 355.08 504.17 C 360.04 495.48 365.03 486.80 370.07 478.15 C 371.38 475.82 372.68 473.47 374.08 471.19 C 379.04 462.49 384.03 453.81 389.07 445.16 Z" />
</g>
</svg>
