<?xml version="1.0" encoding="UTF-8" ?>
<!DOCTYPE svg PUBLIC "-//W3C//DTD SVG 1.1//EN" "http://www.w3.org/Graphics/SVG/1.1/DTD/svg11.dtd">
<svg width="1053pt" height="375pt" viewBox="0 0 1053 375" version="1.1" xmlns="http://www.w3.org/2000/svg">
<g id="#ffffffff">
<path fill="#ffffff" opacity="1.00" d=" M 210.22 137.46 C 210.89 136.48 211.33 134.73 212.91 135.10 C 215.79 135.04 218.67 135.05 221.55 135.25 C 240.13 167.91 259.09 200.38 277.90 232.91 C 276.06 235.40 274.89 238.35 272.97 240.77 C 235.22 240.95 197.45 240.65 159.70 240.92 C 158.09 238.37 156.43 235.82 155.15 233.08 C 173.25 201.08 191.95 169.38 210.22 137.46 M 209.81 154.34 C 222.60 176.41 235.39 198.48 248.16 220.56 C 238.36 220.64 228.56 220.48 218.77 220.62 C 215.56 224.23 213.68 229.19 210.92 233.29 C 230.26 233.38 249.60 233.31 268.94 233.33 C 251.42 203.26 233.97 173.16 216.61 143.00 C 214.09 146.62 212.17 150.62 209.81 154.34 M 164.07 233.33 C 175.68 233.31 187.30 233.36 198.92 233.30 C 201.36 229.04 203.80 224.79 206.34 220.59 C 199.16 220.52 191.98 220.59 184.80 220.54 C 186.72 217.11 188.74 213.74 190.70 210.33 C 203.95 210.33 217.20 210.34 230.46 210.34 C 221.51 195.15 212.68 179.90 203.91 164.61 C 190.62 187.52 177.39 210.45 164.07 233.33 Z" />
<path fill="#ffffff" opacity="1.00" d=" M 308.37 166.44 C 322.71 166.43 337.04 166.43 351.38 166.44 C 351.37 170.02 351.37 173.60 351.38 177.19 C 340.62 177.19 329.87 177.19 319.13 177.19 C 319.12 184.25 319.13 191.31 319.12 198.37 C 329.87 198.38 340.63 198.36 351.38 198.38 C 351.37 201.96 351.38 205.54 351.37 209.12 C 340.62 209.13 329.87 209.12 319.12 209.13 C 319.13 216.19 319.12 223.25 319.13 230.31 C 329.88 230.32 340.63 230.29 351.38 230.32 C 351.37 233.88 351.37 237.44 351.38 241.00 C 337.04 240.99 322.70 241.01 308.37 240.99 C 308.38 216.14 308.36 191.29 308.37 166.44 Z" />
<path fill="#ffffff" opacity="1.00" d=" M 362.38 166.44 C 365.96 166.43 369.55 166.42 373.14 166.47 C 373.10 187.75 373.14 209.03 373.12 230.31 C 383.87 230.31 394.62 230.31 405.37 230.31 C 405.38 233.87 405.37 237.43 405.38 241.00 C 391.04 240.99 376.70 241.01 362.36 240.99 C 362.39 216.14 362.36 191.29 362.38 166.44 Z" />
<path fill="#ffffff" opacity="1.00" d=" M 415.38 166.44 C 425.26 166.45 435.16 166.41 445.05 166.45 C 450.20 166.48 455.86 167.59 459.47 171.58 C 462.78 175.16 463.72 180.23 463.74 184.96 C 463.77 197.30 463.75 209.64 463.75 221.99 C 463.78 227.02 462.85 232.50 459.18 236.22 C 455.55 239.95 450.08 241.02 445.06 241.01 C 435.16 240.98 425.26 241.03 415.35 240.98 C 415.40 216.13 415.36 191.28 415.38 166.44 M 426.13 177.18 C 426.12 194.89 426.13 212.60 426.12 230.31 C 433.07 230.20 440.03 230.54 446.97 230.14 C 450.55 229.91 453.02 226.51 452.88 223.07 C 453.03 211.37 452.88 199.67 452.95 187.98 C 452.89 185.17 453.19 182.04 451.38 179.68 C 449.90 177.76 447.33 177.20 445.04 177.20 C 438.73 177.15 432.43 177.21 426.13 177.18 Z" />
<path fill="#ffffff" opacity="1.00" d=" M 474.38 166.44 C 488.71 166.44 503.04 166.43 517.38 166.44 C 517.37 170.02 517.37 173.60 517.38 177.19 C 506.62 177.19 495.87 177.19 485.13 177.19 C 485.12 184.25 485.12 191.31 485.12 198.37 C 495.87 198.38 506.63 198.36 517.38 198.38 C 517.37 201.96 517.37 205.54 517.38 209.12 C 506.62 209.13 495.87 209.12 485.13 209.13 C 485.12 216.19 485.13 223.25 485.12 230.31 C 495.87 230.32 506.63 230.30 517.38 230.32 C 517.37 233.88 517.37 237.44 517.38 241.00 C 503.04 241.00 488.70 241.01 474.37 240.99 C 474.38 216.14 474.36 191.29 474.38 166.44 Z" />
<path fill="#ffffff" opacity="1.00" d=" M 522.95 166.44 C 526.56 166.43 530.17 166.44 533.78 166.43 C 537.38 185.88 540.84 205.35 544.54 224.78 C 548.89 205.33 553.47 185.93 557.83 166.48 C 561.45 166.41 565.06 166.43 568.68 166.44 C 572.94 185.01 577.21 203.57 581.45 222.15 C 581.77 222.76 581.78 224.67 582.50 224.58 C 582.99 218.62 584.34 212.80 585.36 206.92 C 587.84 193.43 590.32 179.94 592.79 166.44 C 596.40 166.43 600.00 166.43 603.61 166.44 C 598.77 191.29 593.94 216.15 589.10 241.00 C 584.42 241.00 579.74 241.00 575.06 241.00 C 571.15 221.89 567.16 202.80 563.33 183.68 C 559.28 202.77 555.49 221.92 551.48 241.02 C 546.80 240.98 542.12 241.02 537.45 240.99 C 532.64 216.13 527.78 191.29 522.95 166.44 Z" />
<path fill="#ffffff" opacity="1.00" d=" M 608.38 166.44 C 618.58 166.47 628.79 166.37 638.99 166.48 C 644.76 166.53 651.16 168.55 654.17 173.86 C 657.72 180.28 656.79 187.97 656.48 195.01 C 656.14 201.81 651.29 208.27 644.24 209.00 C 648.41 219.66 652.59 230.33 656.76 241.00 C 653.14 241.00 649.53 241.00 645.92 241.00 C 641.79 230.38 637.62 219.78 633.53 209.15 C 628.72 209.10 623.92 209.13 619.12 209.13 C 619.12 219.75 619.12 230.37 619.13 241.00 C 615.54 241.00 611.95 241.00 608.37 241.00 C 608.38 216.14 608.36 191.29 608.38 166.44 M 619.12 177.19 C 619.12 184.25 619.12 191.31 619.12 198.37 C 625.71 198.32 632.31 198.47 638.90 198.31 C 641.88 198.33 644.96 196.48 645.56 193.41 C 646.17 189.83 646.09 186.11 645.65 182.52 C 645.19 179.32 642.11 177.26 639.03 177.24 C 632.40 177.09 625.76 177.24 619.12 177.19 Z" />
<path fill="#ffffff" opacity="1.00" d=" M 667.38 166.44 C 670.96 166.43 674.54 166.43 678.13 166.45 C 678.11 191.30 678.13 216.15 678.13 241.00 C 674.53 241.00 670.94 241.01 667.36 240.98 C 667.39 216.13 667.36 191.29 667.38 166.44 Z" />
<path fill="#ffffff" opacity="1.00" d=" M 688.38 166.44 C 704.50 166.43 720.62 166.44 736.75 166.43 C 736.75 170.02 736.75 173.60 736.75 177.19 C 730.48 177.19 724.21 177.19 717.94 177.19 C 717.94 198.46 717.94 219.73 717.94 241.00 C 714.33 241.00 710.72 241.00 707.12 241.00 C 707.12 219.73 707.12 198.46 707.12 177.19 C 700.88 177.20 694.65 177.15 688.42 177.22 C 688.34 173.63 688.37 170.03 688.38 166.44 Z" />
<path fill="#ffffff" opacity="1.00" d=" M 763.42 166.57 C 768.96 166.31 774.52 166.46 780.07 166.46 C 785.19 166.51 790.77 167.73 794.30 171.73 C 797.73 175.58 798.46 180.97 798.44 185.94 C 798.42 198.30 798.48 210.65 798.41 223.00 C 798.39 228.51 796.72 234.63 791.91 237.87 C 786.69 241.50 780.06 241.02 774.02 241.00 C 767.49 240.86 760.37 241.87 754.51 238.30 C 749.57 235.37 747.50 229.43 747.40 223.95 C 747.33 210.95 747.40 197.95 747.37 184.96 C 747.36 180.29 748.29 175.29 751.50 171.71 C 754.48 168.32 759.04 166.89 763.42 166.57 M 764.20 177.33 C 760.78 177.54 758.22 180.61 758.22 183.96 C 757.99 196.32 758.20 208.69 758.12 221.05 C 758.04 224.06 758.49 227.80 761.50 229.31 C 764.76 230.87 768.51 230.15 772.01 230.31 C 775.83 230.13 779.79 230.82 783.51 229.66 C 786.67 228.61 787.70 225.04 787.62 222.03 C 787.63 210.01 787.61 197.98 787.63 185.95 C 787.63 183.40 787.31 180.45 785.16 178.75 C 782.84 176.94 779.74 177.20 776.99 177.17 C 772.72 177.28 768.45 176.99 764.20 177.33 Z" />
<path fill="#ffffff" opacity="1.00" d=" M 196.83 200.19 C 199.20 195.57 201.61 190.88 204.75 186.74 C 207.05 191.32 210.12 195.49 212.15 200.20 C 208.77 199.83 205.38 200.20 202.00 199.91 C 200.28 200.09 198.56 200.17 196.83 200.19 Z" />
</g>
</svg>
