<?xml version="1.0" encoding="UTF-8" ?>
<!DOCTYPE svg PUBLIC "-//W3C//DTD SVG 1.1//EN" "http://www.w3.org/Graphics/SVG/1.1/DTD/svg11.dtd">
<svg width="2106pt" height="750pt" viewBox="0 0 2106 750" version="1.1" xmlns="http://www.w3.org/2000/svg">
<g id="#ffffffff">
<path fill="#ffffff" opacity="1.00" d=" M 1185.99 323.97 C 1205.39 320.02 1225.21 318.21 1245.00 317.78 C 1270.12 317.09 1295.42 318.31 1320.10 323.30 C 1336.78 327.04 1353.26 332.07 1368.94 338.93 C 1385.76 346.86 1402.68 356.99 1412.89 373.04 C 1415.79 377.33 1417.93 382.05 1420.45 386.56 C 1422.03 389.69 1425.87 390.35 1429.05 390.46 C 1436.42 390.56 1443.79 390.46 1451.16 390.51 C 1451.07 395.49 1451.16 400.48 1451.22 405.47 C 1442.82 405.51 1434.43 405.48 1426.05 405.50 C 1422.79 405.60 1420.28 408.20 1418.72 410.82 C 1410.96 424.77 1399.24 436.21 1385.97 444.93 C 1371.88 453.94 1356.30 460.59 1340.03 464.49 C 1326.27 468.15 1312.21 470.54 1298.05 471.97 C 1289.05 472.82 1280.04 473.92 1270.99 473.78 C 1258.93 473.75 1246.88 474.11 1234.83 474.02 C 1231.04 472.19 1228.16 468.85 1224.56 466.70 C 1208.73 464.43 1192.62 463.22 1177.16 458.98 C 1176.98 458.67 1176.62 458.05 1176.43 457.74 C 1176.40 452.55 1176.51 447.36 1176.30 442.17 C 1186.23 443.07 1196.00 445.49 1205.95 446.46 C 1230.47 448.96 1255.45 452.01 1279.93 447.51 C 1299.60 444.25 1319.51 440.28 1337.57 431.52 C 1346.39 426.73 1355.47 421.74 1362.14 414.05 C 1367.32 408.07 1370.49 399.78 1368.66 391.86 C 1367.20 384.15 1362.02 377.77 1356.30 372.68 C 1342.39 360.56 1324.63 354.03 1306.83 350.14 C 1284.58 345.56 1261.74 343.97 1239.06 344.72 C 1217.13 345.44 1195.09 347.65 1174.01 354.00 C 1159.58 358.20 1145.37 364.19 1133.53 373.59 C 1128.81 377.20 1125.54 382.18 1121.85 386.72 C 1116.55 382.94 1111.53 378.78 1106.24 374.98 C 1112.60 365.92 1120.48 357.83 1129.96 352.02 C 1138.10 347.09 1146.71 342.97 1155.53 339.39 C 1162.64 336.53 1170.20 335.00 1177.44 332.54 C 1180.56 329.97 1182.94 326.60 1185.99 323.97 Z" />
<path fill="#ffffff" opacity="1.00" d=" M 314.12 321.14 C 328.41 321.08 342.71 321.40 357.01 321.34 C 359.56 321.43 362.28 320.96 364.65 322.19 C 364.59 342.49 364.84 362.81 364.98 383.11 C 366.22 385.13 368.32 386.51 369.98 388.20 C 409.23 388.27 448.49 388.31 487.74 388.34 C 487.48 372.10 487.67 355.85 487.34 339.61 C 502.62 339.70 519.41 342.05 530.91 353.09 C 535.84 358.30 540.78 364.48 541.63 371.84 C 542.07 403.11 542.10 434.38 542.31 465.65 C 524.17 465.91 506.02 465.64 487.88 465.77 C 487.78 446.90 487.70 428.03 487.75 409.17 C 452.07 409.02 416.38 409.15 380.70 409.11 C 380.85 427.99 380.95 446.87 381.15 465.75 C 359.17 465.69 337.19 465.84 315.21 465.71 C 314.88 417.52 314.52 369.33 314.12 321.14 Z" />
<path fill="#ffffff" opacity="1.00" d=" M 722.24 322.23 C 726.48 322.25 730.73 322.26 734.97 322.23 C 779.48 369.80 823.66 417.68 868.18 465.24 C 848.91 465.21 829.64 465.53 810.37 465.70 C 792.35 447.00 774.67 427.98 756.68 409.24 C 739.43 409.31 722.17 409.31 704.91 409.31 C 701.57 409.29 697.87 409.86 695.41 412.33 C 678.25 429.74 661.80 447.83 644.91 465.51 C 626.23 465.45 607.54 465.24 588.85 465.24 C 612.24 440.05 635.47 414.72 658.70 389.40 C 686.01 389.61 713.32 389.75 740.62 390.24 C 731.09 380.14 721.27 370.31 711.73 360.22 C 708.42 363.15 705.32 366.31 702.00 369.22 C 694.35 369.08 686.70 368.79 679.06 368.71 C 693.36 353.15 707.98 337.84 722.24 322.23 Z" />
<path fill="#ffffff" opacity="1.00" d=" M 913.89 445.87 C 914.37 404.84 914.38 363.81 914.41 322.78 C 921.91 322.73 929.42 322.79 936.93 322.75 C 947.58 334.25 958.08 345.88 968.82 357.30 C 968.66 378.55 968.84 399.80 968.76 421.04 C 968.49 425.57 968.83 430.45 971.82 434.12 C 976.80 440.40 985.42 441.88 992.99 442.10 C 1026.38 442.09 1059.77 442.21 1093.16 442.14 C 1099.83 447.09 1106.39 452.16 1113.04 457.13 C 1112.90 459.95 1112.89 462.78 1112.98 465.61 C 1052.77 465.75 992.55 465.55 932.34 465.68 C 926.12 459.15 920.03 452.48 913.89 445.87 Z" />
<path fill="#ffffff" opacity="1.00" d=" M 1240.61 383.78 C 1250.34 382.43 1260.72 383.16 1269.58 387.70 C 1273.60 389.90 1277.44 393.37 1278.41 398.03 C 1279.13 403.47 1274.64 407.77 1270.27 410.17 C 1260.92 415.17 1249.78 415.98 1239.46 414.27 C 1233.13 413.05 1226.52 410.83 1222.09 405.93 C 1219.29 402.93 1218.29 398.17 1220.60 394.61 C 1224.94 387.87 1233.03 384.97 1240.61 383.78 Z" />
</g>
</svg>
