<?xml version="1.0" encoding="UTF-8" ?>
<!DOCTYPE svg PUBLIC "-//W3C//DTD SVG 1.1//EN" "http://www.w3.org/Graphics/SVG/1.1/DTD/svg11.dtd">
<svg width="2106pt" height="750pt" viewBox="0 0 2106 750" version="1.1" xmlns="http://www.w3.org/2000/svg">
<g id="#ffffffff">
<path fill="#ffffff" opacity="1.00" d=" M 1186.57 237.78 C 1211.73 232.86 1237.43 231.34 1263.03 231.64 C 1287.24 232.04 1311.63 234.28 1334.98 240.99 C 1351.74 245.84 1368.48 251.46 1383.50 260.51 C 1393.81 266.70 1403.80 274.04 1410.80 283.98 C 1414.63 289.13 1417.41 294.94 1420.45 300.57 C 1422.04 303.69 1425.86 304.35 1429.04 304.46 C 1436.41 304.56 1443.78 304.46 1451.16 304.50 C 1451.08 309.49 1451.16 314.48 1451.21 319.47 C 1442.84 319.51 1434.47 319.48 1426.11 319.50 C 1422.82 319.57 1420.29 322.19 1418.72 324.83 C 1411.08 338.55 1399.60 349.86 1386.60 358.52 C 1372.19 367.86 1356.19 374.67 1339.49 378.62 C 1313.27 385.37 1286.08 388.16 1259.03 387.85 C 1250.96 387.91 1242.89 388.10 1234.82 388.01 C 1231.04 386.19 1228.17 382.87 1224.58 380.71 C 1208.74 378.40 1192.62 377.25 1177.15 372.97 C 1176.98 372.67 1176.62 372.07 1176.44 371.77 C 1176.40 366.55 1176.50 361.34 1176.31 356.13 C 1186.55 357.18 1196.63 359.59 1206.90 360.56 C 1231.10 363.03 1255.77 365.96 1279.93 361.51 C 1299.62 358.24 1319.55 354.27 1337.63 345.49 C 1346.42 340.71 1355.46 335.74 1362.11 328.08 C 1367.31 322.09 1370.50 313.79 1368.65 305.86 C 1366.87 296.71 1360.13 289.53 1353.02 283.98 C 1337.59 271.96 1318.43 266.19 1299.47 262.65 C 1276.18 258.86 1252.47 257.57 1228.92 259.22 C 1204.80 260.32 1180.67 264.54 1158.16 273.42 C 1147.85 278.08 1137.39 283.19 1129.41 291.40 C 1126.54 294.22 1124.48 297.69 1121.90 300.74 C 1116.56 296.97 1111.54 292.78 1106.24 288.98 C 1112.48 280.11 1120.14 272.16 1129.37 266.39 C 1143.23 257.94 1158.30 251.47 1174.10 247.66 C 1179.81 246.81 1182.00 240.41 1186.57 237.78 Z" />
<path fill="#ffffff" opacity="1.00" d=" M 314.11 235.14 C 328.41 235.08 342.70 235.40 357.00 235.34 C 359.56 235.40 362.25 235.01 364.64 236.16 C 364.60 256.47 364.83 276.78 364.99 297.09 C 366.21 299.14 368.33 300.52 370.01 302.20 C 409.21 302.33 448.41 302.19 487.61 302.43 C 487.66 286.15 487.58 269.87 487.35 253.60 C 502.62 253.71 519.40 256.05 530.90 267.08 C 535.83 272.29 540.78 278.47 541.63 285.84 C 542.08 317.10 542.08 348.38 542.32 379.65 C 524.16 379.90 505.99 379.67 487.83 379.75 C 487.84 360.88 487.68 342.01 487.74 323.14 C 452.06 323.05 416.38 323.13 380.70 323.11 C 380.85 341.99 380.95 360.87 381.15 379.75 C 359.17 379.70 337.19 379.83 315.21 379.72 C 314.88 331.53 314.52 283.33 314.11 235.14 Z" />
<path fill="#ffffff" opacity="1.00" d=" M 722.23 236.23 C 726.49 236.26 730.74 236.25 735.01 236.24 C 779.49 283.83 823.68 331.69 868.19 379.25 C 848.91 379.20 829.63 379.54 810.35 379.70 C 792.35 360.99 774.66 341.98 756.69 323.24 C 739.77 323.30 722.85 323.31 705.94 323.31 C 702.25 323.22 698.10 323.61 695.37 326.37 C 678.24 343.77 661.79 361.83 644.93 379.50 C 626.22 379.47 607.50 379.21 588.79 379.26 C 612.25 354.11 635.44 328.70 658.72 303.39 C 686.03 303.62 713.33 303.75 740.63 304.23 C 731.08 294.15 721.28 284.31 711.73 274.22 C 708.43 277.15 705.32 280.31 702.00 283.22 C 694.33 283.05 686.65 282.86 678.98 282.65 C 693.46 267.24 707.93 251.81 722.23 236.23 Z" />
<path fill="#ffffff" opacity="1.00" d=" M 913.91 359.91 C 914.37 318.86 914.37 277.82 914.42 236.77 C 921.93 236.74 929.44 236.78 936.95 236.75 C 947.57 248.27 958.09 259.88 968.82 271.30 C 968.66 293.86 968.85 316.42 968.75 338.98 C 968.65 344.19 971.60 349.21 976.02 351.91 C 981.65 355.37 988.46 356.13 994.94 356.11 C 1027.69 356.08 1060.43 356.21 1093.17 356.14 C 1099.83 361.09 1106.40 366.16 1113.04 371.13 C 1112.89 373.96 1112.90 376.78 1112.98 379.61 C 1052.77 379.75 992.55 379.56 932.34 379.68 C 926.12 373.16 920.06 366.49 913.91 359.91 Z" />
<path fill="#ffffff" opacity="1.00" d=" M 1240.50 297.80 C 1250.23 296.43 1260.63 297.14 1269.51 301.66 C 1273.54 303.85 1277.41 307.32 1278.41 311.99 C 1279.07 316.40 1276.01 320.33 1272.57 322.70 C 1265.74 327.46 1257.19 328.94 1249.02 329.12 C 1240.31 328.98 1231.07 327.36 1224.06 321.86 C 1220.38 319.02 1217.84 313.76 1220.21 309.32 C 1224.28 302.11 1232.74 299.03 1240.50 297.80 Z" />
<path fill="#ffffff" opacity="1.00" d=" M 321.41 455.58 C 326.87 454.47 332.50 455.19 338.04 455.00 C 342.20 454.84 346.93 456.37 348.70 460.48 C 350.48 465.46 349.50 470.85 349.75 476.02 C 349.55 480.71 350.45 485.72 348.40 490.12 C 346.42 493.85 341.97 495.10 338.03 495.00 C 332.99 494.90 327.92 495.28 322.90 494.73 C 318.46 494.30 314.76 490.40 314.68 485.91 C 314.32 478.98 314.50 472.01 314.58 465.07 C 314.50 460.83 317.18 456.61 321.41 455.58 M 323.29 461.43 C 321.11 462.26 320.99 464.89 321.00 466.87 C 321.06 472.93 320.86 479.00 321.10 485.06 C 321.02 487.18 322.83 488.96 324.96 488.91 C 329.92 489.03 334.91 489.16 339.87 488.83 C 342.28 488.69 343.39 486.18 343.23 484.04 C 343.23 477.72 343.35 471.39 343.17 465.07 C 343.37 462.25 340.54 460.73 338.06 461.01 C 333.15 461.18 328.14 460.53 323.29 461.43 Z" />
<path fill="#ffffff" opacity="1.00" d=" M 427.24 455.00 C 429.42 454.99 431.59 454.99 433.78 455.03 C 441.13 461.78 448.68 468.31 456.01 475.08 C 455.99 468.39 456.00 461.69 456.00 455.00 C 458.16 455.00 460.33 454.99 462.50 455.00 C 462.50 468.33 462.50 481.67 462.50 495.00 C 460.33 494.99 458.16 495.00 456.00 495.00 C 456.00 491.13 456.00 487.26 455.99 483.39 C 448.54 476.86 441.10 470.30 433.73 463.66 C 433.77 474.11 433.73 484.55 433.76 494.99 C 431.58 494.99 429.41 494.99 427.24 494.99 C 427.26 481.66 427.25 468.33 427.24 455.00 Z" />
<path fill="#ffffff" opacity="1.00" d=" M 540.50 455.00 C 542.66 454.99 544.83 455.00 547.00 455.00 C 547.00 466.33 547.00 477.67 547.00 489.00 C 554.33 489.00 561.66 489.00 568.99 489.00 C 568.69 490.99 568.41 492.99 568.16 495.00 C 558.94 495.00 549.72 495.00 540.50 495.00 C 540.50 481.67 540.50 468.33 540.50 455.00 Z" />
<path fill="#ffffff" opacity="1.00" d=" M 641.75 455.00 C 643.91 455.00 646.08 455.00 648.25 455.00 C 648.25 468.33 648.25 481.67 648.25 495.00 C 646.08 494.99 643.91 494.99 641.75 495.00 C 641.75 481.67 641.75 468.33 641.75 455.00 Z" />
<path fill="#ffffff" opacity="1.00" d=" M 726.24 455.01 C 728.41 454.99 730.58 454.99 732.76 455.03 C 740.13 461.76 747.67 468.31 755.00 475.08 C 754.99 468.38 755.00 461.69 755.00 455.00 C 757.16 455.00 759.32 454.99 761.50 455.00 C 761.50 468.33 761.50 481.67 761.50 495.00 C 759.32 494.99 757.16 495.00 755.00 495.00 C 754.99 491.13 755.00 487.26 754.99 483.39 C 747.54 476.85 740.09 470.30 732.73 463.65 C 732.77 474.10 732.73 484.55 732.75 494.99 C 730.58 494.99 728.41 494.99 726.24 494.99 C 726.26 481.66 726.25 468.33 726.24 455.01 Z" />
<path fill="#ffffff" opacity="1.00" d=" M 839.50 455.00 C 849.50 455.00 859.50 455.00 869.50 455.00 C 869.49 457.00 869.49 458.99 869.50 461.00 C 861.66 461.00 853.83 461.00 846.00 461.00 C 845.99 464.66 845.99 468.33 846.00 472.00 C 853.85 472.00 861.69 472.00 869.54 472.00 C 869.27 473.98 869.03 475.96 868.81 477.95 C 861.20 478.06 853.60 477.97 846.00 478.00 C 845.99 481.66 845.99 485.33 846.00 489.00 C 854.42 489.00 862.83 489.00 871.25 489.00 C 871.24 491.00 871.24 492.99 871.25 495.00 C 860.67 495.00 850.08 495.00 839.50 495.00 C 839.50 481.67 839.50 468.33 839.50 455.00 Z" />
</g>
</svg>
