<?xml version="1.0" encoding="UTF-8" ?>
<!DOCTYPE svg PUBLIC "-//W3C//DTD SVG 1.1//EN" "http://www.w3.org/Graphics/SVG/1.1/DTD/svg11.dtd">
<svg width="2106pt" height="750pt" viewBox="0 0 2106 750" version="1.1" xmlns="http://www.w3.org/2000/svg">
<g id="#ffffffff">
<path fill="#ffffff" opacity="1.00" d=" M 1190.00 237.09 C 1216.69 232.31 1243.89 231.05 1270.96 231.81 C 1294.99 232.69 1319.12 235.66 1342.07 243.09 C 1364.09 249.73 1386.00 259.06 1403.00 274.95 C 1410.49 281.93 1415.56 290.96 1420.12 300.01 C 1421.60 303.48 1425.64 304.42 1429.06 304.46 C 1436.42 304.56 1443.78 304.46 1451.15 304.50 C 1451.08 309.49 1451.16 314.48 1451.22 319.47 C 1442.84 319.52 1434.48 319.47 1426.11 319.51 C 1422.83 319.56 1420.31 322.18 1418.74 324.81 C 1409.35 341.52 1394.49 354.79 1377.71 363.80 C 1361.48 373.20 1343.23 378.22 1324.99 381.99 C 1304.57 385.79 1283.78 388.09 1262.99 387.82 C 1254.64 387.85 1246.30 388.00 1237.96 388.06 C 1232.01 388.96 1228.94 382.33 1223.90 380.58 C 1208.29 378.42 1192.42 377.17 1177.18 372.98 C 1177.00 372.67 1176.64 372.07 1176.46 371.77 C 1176.39 366.54 1176.49 361.31 1176.33 356.08 C 1186.88 357.29 1197.29 359.68 1207.89 360.67 C 1231.75 363.09 1256.05 365.90 1279.85 361.52 C 1299.56 358.26 1319.50 354.29 1337.59 345.50 C 1346.41 340.72 1355.48 335.73 1362.13 328.05 C 1367.31 322.08 1370.48 313.81 1368.67 305.91 C 1366.94 296.96 1360.44 289.86 1353.52 284.37 C 1338.22 272.25 1319.10 266.37 1300.18 262.78 C 1276.69 258.87 1252.75 257.57 1228.99 259.22 C 1204.85 260.31 1180.70 264.52 1158.17 273.42 C 1147.86 278.07 1137.41 283.18 1129.42 291.39 C 1126.58 294.22 1124.45 297.66 1121.92 300.75 C 1116.58 296.98 1111.54 292.79 1106.24 288.97 C 1112.50 280.09 1120.18 272.13 1129.43 266.35 C 1143.28 257.92 1158.34 251.46 1174.12 247.65 C 1181.08 246.77 1182.70 237.02 1190.00 237.09 Z" />
<path fill="#ffffff" opacity="1.00" d=" M 314.12 235.13 C 328.08 235.09 342.05 235.39 356.01 235.33 C 358.89 235.40 361.87 235.03 364.63 236.08 C 364.62 256.45 364.81 276.82 364.99 297.18 C 366.34 299.12 368.28 300.56 369.97 302.19 C 409.23 302.27 448.49 302.33 487.74 302.32 C 487.49 286.08 487.65 269.83 487.36 253.58 C 502.84 253.72 519.95 256.13 531.40 267.58 C 536.78 273.44 542.29 280.62 541.70 289.03 C 541.99 319.27 542.20 349.51 542.26 379.75 C 524.12 379.77 505.97 379.74 487.82 379.75 C 487.84 360.88 487.69 342.01 487.73 323.14 C 452.05 323.06 416.37 323.13 380.70 323.11 C 380.85 341.99 380.94 360.87 381.15 379.75 C 359.17 379.69 337.18 379.84 315.20 379.71 C 314.90 331.52 314.50 283.33 314.12 235.13 Z" />
<path fill="#ffffff" opacity="1.00" d=" M 722.23 236.23 C 726.49 236.25 730.75 236.25 735.01 236.24 C 779.47 283.83 823.67 331.66 868.16 379.23 C 848.88 379.23 829.61 379.53 810.34 379.69 C 792.35 360.98 774.66 341.98 756.69 323.24 C 739.10 323.32 721.52 323.28 703.94 323.33 C 700.90 323.41 697.62 324.10 695.41 326.33 C 678.27 343.74 661.80 361.80 644.96 379.49 C 626.23 379.48 607.51 379.21 588.79 379.25 C 612.23 354.12 635.44 328.75 658.66 303.42 C 686.00 303.58 713.35 303.79 740.68 304.22 C 731.05 294.20 721.31 284.28 711.72 274.21 C 708.44 277.17 705.31 280.29 702.01 283.22 C 694.32 283.05 686.63 282.86 678.94 282.65 C 693.47 267.27 707.91 251.80 722.23 236.23 Z" />
<path fill="#ffffff" opacity="1.00" d=" M 913.90 359.91 C 914.36 318.87 914.38 277.82 914.42 236.78 C 921.93 236.74 929.44 236.78 936.95 236.75 C 947.57 248.26 958.09 259.88 968.82 271.30 C 968.66 293.85 968.85 316.41 968.75 338.97 C 968.64 344.42 971.86 349.60 976.56 352.24 C 982.73 355.77 990.04 356.23 996.99 356.11 C 1029.04 356.08 1061.09 356.22 1093.14 356.13 C 1099.82 361.07 1106.38 366.15 1113.03 371.13 C 1112.89 373.96 1112.91 376.79 1112.97 379.62 C 1052.76 379.74 992.54 379.56 932.33 379.67 C 926.12 373.15 920.06 366.48 913.90 359.91 Z" />
<path fill="#ffffff" opacity="1.00" d=" M 1240.53 297.79 C 1250.63 296.39 1261.51 297.17 1270.55 302.24 C 1274.61 304.76 1278.76 308.85 1278.47 314.01 C 1277.78 319.46 1272.87 323.02 1268.25 325.20 C 1259.09 329.29 1248.62 329.95 1238.83 328.16 C 1232.73 326.90 1226.39 324.69 1222.11 319.96 C 1219.29 316.95 1218.27 312.13 1220.63 308.56 C 1224.96 301.87 1233.00 298.99 1240.53 297.79 Z" />
<path fill="#ffffff" opacity="1.00" d=" M 942.48 438.80 C 952.29 436.71 963.00 436.80 972.33 440.78 C 979.50 443.68 983.38 451.26 984.23 458.61 C 985.37 467.91 985.10 478.39 979.28 486.21 C 973.64 493.58 963.78 495.42 955.03 495.52 C 946.10 495.56 936.06 494.29 929.61 487.45 C 922.76 479.39 922.03 467.80 923.81 457.80 C 925.44 448.38 933.21 440.76 942.48 438.80 M 948.24 448.14 C 942.37 449.60 938.37 455.11 937.43 460.89 C 936.58 466.52 936.78 472.53 938.96 477.86 C 940.86 482.22 945.52 484.59 950.05 485.17 C 955.40 485.96 961.64 485.72 965.82 481.84 C 969.70 478.00 970.35 472.21 970.53 467.03 C 970.72 461.03 969.16 454.37 964.12 450.59 C 959.63 447.29 953.51 446.84 948.24 448.14 Z" />
<path fill="#ffffff" opacity="1.00" d=" M 1031.50 438.75 C 1037.53 438.74 1043.56 438.76 1049.59 438.74 C 1058.42 452.61 1067.26 466.46 1076.15 480.29 C 1076.40 466.44 1076.15 452.59 1076.27 438.74 C 1080.76 438.76 1085.25 438.74 1089.75 438.75 C 1089.74 457.33 1089.76 475.92 1089.74 494.51 C 1083.79 494.49 1077.85 494.50 1071.91 494.50 C 1062.83 480.94 1054.16 467.09 1044.83 453.71 C 1044.64 467.31 1044.81 480.91 1044.74 494.51 C 1040.32 494.49 1035.91 494.50 1031.50 494.50 C 1031.50 475.91 1031.50 457.33 1031.50 438.75 Z" />
<path fill="#ffffff" opacity="1.00" d=" M 1137.75 438.75 C 1142.58 438.75 1147.41 438.75 1152.25 438.75 C 1152.26 450.52 1152.23 462.30 1152.26 474.07 C 1152.02 479.58 1156.47 485.02 1162.11 485.26 C 1169.38 485.81 1176.70 485.36 1183.99 485.50 C 1183.99 488.49 1183.99 491.49 1184.00 494.50 C 1174.67 494.27 1165.29 495.00 1156.01 494.03 C 1150.28 493.38 1144.28 491.07 1141.05 486.03 C 1138.65 482.53 1137.66 478.24 1137.74 474.04 C 1137.76 462.28 1137.74 450.51 1137.75 438.75 Z" />
<path fill="#ffffff" opacity="1.00" d=" M 1230.75 438.75 C 1235.74 438.75 1240.74 438.75 1245.75 438.75 C 1245.75 457.33 1245.74 475.91 1245.75 494.50 C 1240.75 494.50 1235.75 494.50 1230.75 494.50 C 1230.75 475.91 1230.75 457.33 1230.75 438.75 Z" />
<path fill="#ffffff" opacity="1.00" d=" M 1294.00 438.75 C 1300.03 438.75 1306.06 438.75 1312.09 438.75 C 1320.97 452.66 1329.83 466.58 1338.75 480.47 C 1338.75 466.56 1338.74 452.65 1338.75 438.75 C 1343.24 438.75 1347.74 438.75 1352.25 438.75 C 1352.25 457.33 1352.25 475.91 1352.25 494.50 C 1346.27 494.47 1340.29 494.55 1334.31 494.45 C 1325.39 480.65 1316.24 467.01 1307.27 453.26 C 1307.23 467.00 1307.26 480.75 1307.25 494.49 C 1302.83 494.50 1298.42 494.49 1294.01 494.50 C 1293.99 475.92 1294.00 457.33 1294.00 438.75 Z" />
<path fill="#ffffff" opacity="1.00" d=" M 1413.25 441.17 C 1417.85 439.05 1422.99 438.57 1428.01 438.74 C 1435.59 438.76 1443.17 438.74 1450.75 438.75 C 1450.74 442.08 1450.74 445.41 1450.75 448.75 C 1442.46 448.78 1434.17 448.68 1425.89 448.78 C 1419.40 449.06 1414.11 455.04 1414.04 461.44 C 1426.44 461.58 1438.85 461.46 1451.25 461.51 C 1451.24 464.83 1451.24 468.16 1451.25 471.49 C 1438.86 471.53 1426.46 471.43 1414.07 471.55 C 1414.18 478.31 1419.90 485.16 1426.99 484.76 C 1435.08 484.74 1443.16 484.75 1451.25 484.75 C 1451.24 488.00 1451.24 491.24 1451.25 494.50 C 1442.16 494.50 1433.07 494.49 1423.99 494.51 C 1416.43 494.51 1408.43 491.43 1404.03 485.04 C 1398.68 477.18 1397.52 466.91 1399.88 457.81 C 1401.74 450.75 1406.36 444.07 1413.25 441.17 Z" />
</g>
</svg>
