<?xml version="1.0" encoding="UTF-8" ?>
<!DOCTYPE svg PUBLIC "-//W3C//DTD SVG 1.1//EN" "http://www.w3.org/Graphics/SVG/1.1/DTD/svg11.dtd">
<svg width="2106pt" height="750pt" viewBox="0 0 2106 750" version="1.1" xmlns="http://www.w3.org/2000/svg">
<g id="#ffffffff">
<path fill="#ffffff" opacity="1.00" d=" M 1591.43 227.52 C 1595.69 223.27 1599.93 218.98 1604.20 214.73 C 1645.86 214.81 1687.52 214.74 1729.17 214.76 C 1729.17 217.71 1729.16 220.66 1729.11 223.61 C 1741.49 223.59 1753.89 223.61 1766.28 223.61 C 1766.24 228.55 1766.23 233.50 1766.28 238.45 C 1756.42 237.86 1745.98 238.35 1737.11 243.14 C 1734.42 244.39 1732.84 246.94 1730.92 249.05 C 1725.13 253.48 1720.45 259.16 1715.22 264.21 C 1706.23 273.22 1697.64 282.61 1688.49 291.46 C 1686.64 291.83 1684.73 291.43 1682.90 291.40 C 1673.71 290.44 1664.45 290.42 1655.22 290.45 C 1655.15 286.05 1655.25 281.66 1655.16 277.27 C 1658.05 277.26 1660.96 277.27 1663.88 277.31 C 1674.13 267.12 1684.20 256.74 1694.61 246.72 C 1664.77 246.73 1634.93 246.69 1605.09 246.75 C 1598.38 247.14 1590.93 249.14 1586.92 254.96 C 1585.47 256.81 1585.26 259.20 1585.80 261.42 C 1581.68 261.36 1577.57 261.38 1573.46 261.41 C 1573.53 250.09 1573.46 238.78 1573.50 227.47 C 1579.47 227.57 1585.44 227.51 1591.43 227.52 Z" />
<path fill="#ffffff" opacity="1.00" d=" M 1185.92 238.00 C 1209.26 233.16 1233.19 231.67 1257.00 231.59 C 1281.81 231.68 1306.82 233.51 1330.88 239.88 C 1349.51 245.01 1368.15 251.07 1384.72 261.24 C 1397.64 268.88 1409.36 279.19 1416.29 292.72 C 1418.96 296.89 1420.10 303.52 1426.02 304.14 C 1434.36 304.93 1442.78 304.29 1451.16 304.50 C 1451.08 309.49 1451.16 314.48 1451.22 319.47 C 1442.84 319.52 1434.47 319.48 1426.11 319.50 C 1422.86 319.57 1420.34 322.14 1418.77 324.74 C 1409.39 341.50 1394.50 354.79 1377.68 363.81 C 1365.75 370.60 1352.77 375.40 1339.45 378.63 C 1313.22 385.38 1286.03 388.16 1258.98 387.85 C 1250.91 387.96 1242.84 388.01 1234.77 388.02 C 1231.03 386.13 1228.15 382.87 1224.57 380.71 C 1209.65 378.64 1194.58 377.22 1179.88 373.80 C 1178.62 373.39 1176.82 373.39 1176.45 371.82 C 1176.40 366.59 1176.50 361.36 1176.31 356.13 C 1185.23 356.96 1193.99 359.10 1202.91 360.08 C 1221.19 362.16 1239.57 364.11 1258.00 363.74 C 1268.12 363.69 1278.10 361.82 1288.05 360.15 C 1305.22 356.93 1322.54 353.03 1338.27 345.16 C 1347.02 340.34 1356.05 335.34 1362.54 327.56 C 1367.46 321.66 1370.43 313.61 1368.67 305.93 C 1366.96 296.98 1360.46 289.88 1353.54 284.39 C 1338.06 272.12 1318.68 266.24 1299.54 262.66 C 1276.24 258.86 1252.51 257.57 1228.95 259.22 C 1204.83 260.31 1180.68 264.53 1158.16 273.42 C 1147.84 278.08 1137.37 283.20 1129.38 291.43 C 1126.52 294.24 1124.49 297.72 1121.88 300.73 C 1116.56 296.96 1111.54 292.78 1106.24 288.98 C 1113.15 279.10 1121.94 270.42 1132.51 264.50 C 1143.46 258.34 1154.93 252.90 1167.09 249.61 C 1170.51 248.48 1174.12 247.91 1177.45 246.52 C 1180.55 243.96 1182.93 240.66 1185.92 238.00 Z" />
<path fill="#ffffff" opacity="1.00" d=" M 314.11 235.14 C 328.08 235.08 342.05 235.39 356.01 235.34 C 358.89 235.45 361.91 234.92 364.63 236.13 C 364.56 255.74 364.91 275.35 364.90 294.97 C 364.26 298.44 368.09 299.98 369.99 302.20 C 409.24 302.27 448.49 302.32 487.74 302.33 C 487.48 286.09 487.67 269.84 487.35 253.60 C 502.64 253.71 519.47 256.06 530.95 267.13 C 535.86 272.35 540.80 278.51 541.63 285.86 C 542.01 317.16 542.22 348.47 542.22 379.78 C 524.09 379.73 505.96 379.76 487.83 379.75 C 487.84 360.88 487.68 342.01 487.74 323.15 C 452.06 323.05 416.38 323.13 380.70 323.11 C 380.85 341.99 380.95 360.87 381.15 379.75 C 359.17 379.69 337.18 379.84 315.20 379.71 C 314.89 331.52 314.51 283.33 314.11 235.14 Z" />
<path fill="#ffffff" opacity="1.00" d=" M 722.24 236.23 C 726.49 236.26 730.74 236.25 735.00 236.23 C 779.49 283.82 823.67 331.69 868.19 379.25 C 848.92 379.20 829.64 379.54 810.36 379.70 C 792.35 361.00 774.66 341.97 756.68 323.24 C 739.11 323.32 721.53 323.29 703.96 323.33 C 700.90 323.40 697.59 324.11 695.37 326.37 C 678.23 343.77 661.79 361.83 644.93 379.50 C 626.21 379.47 607.50 379.21 588.79 379.25 C 612.24 354.11 635.44 328.72 658.70 303.40 C 686.01 303.61 713.33 303.76 740.64 304.24 C 731.08 294.15 721.28 284.30 711.73 274.21 C 708.42 277.15 705.32 280.33 701.98 283.23 C 694.32 283.06 686.67 282.81 679.02 282.69 C 693.40 267.19 707.95 251.83 722.24 236.23 Z" />
<path fill="#ffffff" opacity="1.00" d=" M 913.90 359.90 C 914.38 318.86 914.36 277.81 914.43 236.77 C 921.93 236.75 929.44 236.78 936.95 236.75 C 947.57 248.26 958.09 259.88 968.82 271.30 C 968.66 293.85 968.85 316.39 968.75 338.94 C 968.64 344.14 971.56 349.16 975.96 351.87 C 981.62 355.38 988.48 356.14 995.01 356.11 C 1027.73 356.08 1060.45 356.21 1093.17 356.14 C 1099.83 361.09 1106.39 366.16 1113.04 371.13 C 1112.90 373.97 1112.92 376.81 1112.94 379.65 C 1052.74 379.69 992.54 379.58 932.34 379.68 C 926.12 373.15 920.05 366.48 913.90 359.90 Z" />
<path fill="#ffffff" opacity="1.00" d=" M 1723.95 276.52 C 1725.97 275.80 1728.10 276.41 1730.15 276.86 C 1743.54 280.02 1756.89 283.81 1769.46 289.50 C 1782.92 296.20 1792.98 309.95 1794.56 324.99 C 1795.18 343.07 1782.54 358.94 1767.20 367.16 C 1748.35 376.69 1727.79 382.45 1707.03 385.95 C 1672.51 391.47 1637.05 390.71 1602.73 384.12 C 1596.44 382.68 1590.04 381.41 1584.11 378.81 C 1580.98 377.79 1580.83 374.12 1579.55 371.60 C 1569.74 368.42 1560.81 363.15 1551.79 358.28 C 1541.53 352.34 1531.28 346.33 1521.81 339.19 C 1519.84 337.31 1516.57 335.80 1516.04 333.07 C 1520.64 328.28 1525.47 323.71 1530.08 318.91 C 1544.91 333.31 1564.40 341.66 1583.93 347.57 C 1613.77 356.11 1645.03 360.43 1676.08 358.54 C 1691.01 357.73 1706.05 355.88 1720.30 351.14 C 1728.54 348.23 1736.90 344.21 1742.39 337.15 C 1746.47 332.06 1748.00 325.25 1747.23 318.84 C 1745.73 312.30 1740.42 307.54 1734.93 304.14 C 1726.23 298.96 1716.31 296.28 1706.45 294.35 C 1712.49 288.65 1718.50 282.79 1723.95 276.52 Z" />
<path fill="#ffffff" opacity="1.00" d=" M 1240.60 297.78 C 1250.50 296.41 1261.11 297.17 1270.05 301.96 C 1274.10 304.32 1278.14 308.10 1278.50 313.05 C 1278.49 318.40 1273.94 322.26 1269.58 324.54 C 1260.37 329.17 1249.58 329.95 1239.53 328.29 C 1233.20 327.08 1226.60 324.87 1222.14 319.99 C 1219.31 316.99 1218.26 312.20 1220.60 308.61 C 1224.93 301.87 1233.03 298.97 1240.60 297.78 Z" />
<path fill="#ffffff" opacity="1.00" d=" M 313.74 463.97 C 313.49 457.90 318.70 452.24 324.77 452.03 C 328.90 452.06 333.47 451.31 337.12 453.74 C 340.03 455.42 341.77 458.45 342.70 461.60 C 341.31 461.85 339.93 462.10 338.55 462.35 C 337.57 459.08 334.79 456.21 331.19 456.28 C 327.97 456.39 324.38 455.52 321.51 457.41 C 319.23 458.70 317.98 461.35 318.01 463.92 C 318.02 470.69 317.92 477.45 318.06 484.22 C 318.28 488.15 322.04 491.32 325.95 491.02 C 329.12 490.86 332.84 491.70 335.46 489.41 C 337.07 488.21 337.85 486.33 338.63 484.56 C 340.00 484.85 341.38 485.16 342.76 485.48 C 341.36 490.38 337.29 494.94 331.94 495.21 C 327.99 495.16 323.68 495.91 320.07 493.90 C 316.10 491.88 313.53 487.46 313.74 483.01 C 313.75 476.66 313.74 470.31 313.74 463.97 Z" />
<path fill="#ffffff" opacity="1.00" d=" M 415.03 452.03 C 416.41 452.01 417.80 452.00 419.20 451.99 C 419.33 462.65 419.19 473.31 419.26 483.97 C 419.42 487.85 423.00 491.25 426.93 491.00 C 430.11 490.93 433.77 491.63 436.42 489.40 C 438.66 487.70 439.53 484.77 439.27 482.05 C 439.24 472.05 439.23 462.04 439.28 452.04 C 440.66 452.01 442.05 451.99 443.45 451.99 C 443.56 462.33 443.46 472.68 443.51 483.02 C 443.83 488.66 439.52 494.07 433.98 495.05 C 431.25 495.41 428.49 495.28 425.76 495.21 C 420.11 494.84 415.19 489.81 415.03 484.14 C 414.97 473.44 414.99 462.73 415.03 452.03 Z" />
<path fill="#ffffff" opacity="1.00" d=" M 519.38 454.27 C 523.47 450.76 529.17 452.34 534.06 451.99 C 538.88 451.41 543.53 454.81 544.64 459.49 C 543.29 459.74 541.94 459.98 540.59 460.22 C 539.59 458.34 538.14 456.33 535.79 456.31 C 532.19 456.17 528.59 456.19 525.00 456.31 C 522.25 456.41 520.01 459.16 520.25 461.87 C 519.99 464.72 520.13 468.39 523.06 469.88 C 527.58 471.17 532.32 471.55 536.93 472.52 C 541.47 473.09 545.01 477.45 545.00 481.97 C 545.28 485.77 545.00 490.15 541.81 492.77 C 537.84 496.56 531.95 494.89 527.03 495.27 C 522.13 495.81 517.36 492.32 516.37 487.51 C 517.72 487.25 519.08 487.00 520.44 486.77 C 521.37 488.60 522.54 490.77 524.87 490.93 C 528.26 491.09 531.67 491.00 535.08 490.99 C 537.88 491.21 540.69 488.91 540.71 486.04 C 540.98 482.98 541.08 478.81 537.78 477.31 C 532.73 475.94 527.46 475.59 522.38 474.33 C 519.25 473.26 516.83 470.35 516.21 467.12 C 515.61 462.70 515.57 457.34 519.38 454.27 Z" />
<path fill="#ffffff" opacity="1.00" d=" M 614.80 452.00 C 624.45 451.99 634.10 452.00 643.75 452.00 C 643.74 453.41 643.74 454.83 643.75 456.25 C 639.66 456.25 635.58 456.25 631.50 456.25 C 631.42 469.26 631.64 482.29 631.39 495.30 C 630.00 495.26 628.62 495.22 627.25 495.17 C 627.26 482.20 627.24 469.23 627.26 456.27 C 623.08 456.23 618.91 456.28 614.75 456.22 C 614.75 454.81 614.77 453.40 614.80 452.00 Z" />
<path fill="#ffffff" opacity="1.00" d=" M 722.58 452.65 C 725.62 451.63 728.89 452.04 732.06 452.00 C 738.03 451.88 743.49 457.06 743.73 463.02 C 743.77 469.99 743.76 476.96 743.74 483.94 C 743.65 489.68 738.71 494.88 732.96 495.20 C 730.32 495.30 727.67 495.34 725.05 495.16 C 719.52 494.59 714.89 489.57 714.77 484.02 C 714.69 478.00 714.79 471.98 714.73 465.97 C 714.01 460.42 717.13 454.45 722.58 452.65 M 724.40 456.52 C 721.21 457.43 718.90 460.54 719.01 463.87 C 719.01 470.64 718.92 477.42 719.06 484.20 C 719.29 489.11 724.53 491.85 729.01 491.03 C 733.36 491.75 738.67 489.75 739.36 484.88 C 739.71 479.24 739.38 473.58 739.51 467.94 C 739.50 464.74 739.93 461.01 737.43 458.55 C 734.07 455.08 728.69 456.27 724.40 456.52 Z" />
<path fill="#ffffff" opacity="1.00" d=" M 817.55 452.00 C 818.96 452.00 820.38 452.01 821.81 452.02 C 826.09 459.62 830.43 467.19 834.59 474.86 C 839.16 467.40 843.26 459.67 847.49 452.02 C 848.96 452.01 850.45 452.02 851.94 452.05 C 852.03 466.44 852.05 480.83 851.93 495.22 C 850.47 495.23 849.02 495.24 847.58 495.24 C 847.40 483.85 847.55 472.45 847.50 461.06 C 843.93 467.37 840.39 473.68 836.81 479.98 C 835.35 479.98 833.91 479.98 832.49 479.97 C 829.00 473.54 825.32 467.22 821.73 460.86 C 821.77 472.30 821.74 483.75 821.75 495.20 C 820.32 495.21 818.91 495.22 817.51 495.22 C 817.52 480.81 817.44 466.40 817.55 452.00 Z" />
<path fill="#ffffff" opacity="1.00" d=" M 1009.28 452.03 C 1018.24 451.96 1027.20 452.02 1036.16 452.00 C 1036.18 453.41 1036.19 454.83 1036.18 456.25 C 1028.62 456.26 1021.05 456.24 1013.49 456.26 C 1013.50 461.25 1013.49 466.25 1013.50 471.25 C 1020.30 471.27 1027.10 471.20 1033.91 471.29 C 1033.95 472.68 1033.99 474.09 1034.03 475.49 C 1027.19 475.50 1020.34 475.49 1013.50 475.50 C 1013.49 480.66 1013.49 485.83 1013.50 491.00 C 1021.05 491.00 1028.60 491.00 1036.16 491.00 C 1036.18 492.41 1036.19 493.83 1036.19 495.25 C 1027.21 495.21 1018.23 495.33 1009.25 495.19 C 1009.27 480.80 1009.21 466.42 1009.28 452.03 Z" />
<path fill="#ffffff" opacity="1.00" d=" M 1108.80 452.00 C 1114.52 452.01 1120.25 451.98 1125.98 452.00 C 1132.00 451.83 1137.53 457.07 1137.73 463.09 C 1137.76 470.07 1137.76 477.05 1137.73 484.03 C 1137.61 490.09 1132.08 495.41 1126.01 495.25 C 1120.25 495.26 1114.51 495.27 1108.77 495.22 C 1108.76 480.82 1108.69 466.41 1108.80 452.00 M 1113.01 456.25 C 1112.99 467.83 1113.00 479.41 1113.00 491.00 C 1117.35 490.97 1121.71 491.04 1126.07 490.99 C 1129.87 491.13 1133.33 487.80 1133.46 484.01 C 1133.56 477.34 1133.48 470.67 1133.49 464.00 C 1133.71 459.99 1130.23 456.13 1126.15 456.26 C 1121.77 456.20 1117.38 456.28 1113.01 456.25 Z" />
<path fill="#ffffff" opacity="1.00" d=" M 1210.29 452.03 C 1216.03 451.99 1221.77 451.96 1227.52 452.04 C 1227.47 453.45 1227.44 454.87 1227.37 456.29 C 1225.23 456.25 1223.12 456.24 1221.01 456.24 C 1220.99 467.82 1221.00 479.41 1221.00 490.99 C 1223.16 490.99 1225.34 490.99 1227.53 491.05 C 1227.47 492.46 1227.44 493.87 1227.37 495.29 C 1221.66 495.18 1215.94 495.34 1210.24 495.19 C 1210.24 493.79 1210.25 492.41 1210.29 491.03 C 1212.43 491.00 1214.59 490.99 1216.75 490.99 C 1216.74 479.41 1216.75 467.84 1216.75 456.26 C 1214.57 456.25 1212.39 456.24 1210.24 456.18 C 1210.23 454.79 1210.25 453.41 1210.29 452.03 Z" />
<path fill="#ffffff" opacity="1.00" d=" M 1297.29 452.03 C 1306.94 451.97 1316.59 452.01 1326.25 452.00 C 1326.23 453.41 1326.23 454.83 1326.25 456.25 C 1322.16 456.25 1318.08 456.25 1314.00 456.25 C 1313.99 469.23 1314.01 482.22 1314.00 495.20 C 1312.57 495.22 1311.16 495.23 1309.77 495.24 C 1309.72 482.24 1309.76 469.25 1309.75 456.25 C 1305.57 456.23 1301.40 456.30 1297.24 456.19 C 1297.23 454.79 1297.25 453.41 1297.29 452.03 Z" />
<path fill="#ffffff" opacity="1.00" d=" M 1396.29 452.03 C 1402.04 452.01 1407.79 451.92 1413.54 452.08 C 1413.48 453.47 1413.44 454.87 1413.39 456.27 C 1411.25 456.25 1409.12 456.24 1407.01 456.25 C 1406.99 467.83 1407.00 479.41 1407.00 490.99 C 1409.16 490.99 1411.33 490.99 1413.52 491.06 C 1413.47 492.46 1413.44 493.86 1413.39 495.28 C 1407.67 495.19 1401.95 495.33 1396.24 495.19 C 1396.23 493.80 1396.25 492.41 1396.29 491.03 C 1398.43 491.00 1400.58 490.99 1402.75 490.99 C 1402.74 479.41 1402.75 467.84 1402.75 456.26 C 1400.56 456.26 1398.38 456.25 1396.22 456.15 C 1396.22 454.77 1396.25 453.40 1396.29 452.03 Z" />
<path fill="#ffffff" opacity="1.00" d=" M 1493.56 452.66 C 1496.60 451.63 1499.89 452.05 1503.06 452.00 C 1509.05 451.88 1514.52 457.09 1514.73 463.07 C 1514.78 469.72 1514.72 476.37 1514.76 483.02 C 1514.95 487.34 1512.54 491.62 1508.78 493.73 C 1505.21 495.88 1500.88 495.18 1496.93 495.23 C 1491.03 495.11 1485.84 489.85 1485.76 483.96 C 1485.71 477.30 1485.76 470.64 1485.74 463.99 C 1485.58 459.06 1488.90 454.26 1493.56 452.66 M 1495.46 456.50 C 1492.23 457.40 1489.89 460.53 1490.01 463.88 C 1490.01 470.66 1489.92 477.44 1490.06 484.22 C 1490.28 488.16 1494.06 491.34 1497.97 491.02 C 1501.37 490.91 1505.36 491.70 1508.08 489.06 C 1511.71 485.72 1510.19 480.36 1510.50 476.01 C 1510.12 470.84 1511.34 465.40 1509.72 460.41 C 1507.16 455.00 1500.30 456.08 1495.46 456.50 Z" />
<path fill="#ffffff" opacity="1.00" d=" M 1588.55 452.00 C 1589.95 452.00 1591.36 452.01 1592.80 452.03 C 1599.63 463.49 1606.39 475.00 1613.22 486.46 C 1613.30 474.98 1613.19 463.51 1613.28 452.03 C 1614.65 452.01 1616.04 452.00 1617.45 451.99 C 1617.55 466.40 1617.47 480.80 1617.49 495.20 C 1616.03 495.22 1614.59 495.23 1613.17 495.23 C 1606.39 483.65 1599.62 472.07 1592.78 460.54 C 1592.71 472.09 1592.76 483.64 1592.75 495.20 C 1591.31 495.21 1589.90 495.22 1588.51 495.22 C 1588.52 480.81 1588.44 466.40 1588.55 452.00 Z" />
</g>
</svg>
