<?xml version="1.0" encoding="UTF-8" ?>
<!DOCTYPE svg PUBLIC "-//W3C//DTD SVG 1.1//EN" "http://www.w3.org/Graphics/SVG/1.1/DTD/svg11.dtd">
<svg width="512pt" height="512pt" viewBox="0 0 512 512" version="1.1" xmlns="http://www.w3.org/2000/svg">
<g id="#ffffffff">
<path fill="#ffffff" opacity="1.00" d=" M 281.32 50.03 C 331.60 49.97 381.89 50.00 432.17 50.01 C 432.08 50.42 431.90 51.24 431.81 51.66 C 385.64 97.89 339.42 144.08 293.21 190.27 C 293.00 192.05 291.37 193.03 290.26 194.26 C 269.50 214.92 248.89 235.72 228.09 256.34 L 228.11 256.66 C 249.70 278.18 271.29 299.72 292.78 321.34 C 292.88 321.69 293.10 322.38 293.20 322.73 C 339.42 368.92 385.64 415.11 431.81 461.35 C 431.90 461.76 432.08 462.58 432.17 462.99 C 381.89 463.00 331.60 463.03 281.32 462.97 C 260.95 442.24 240.24 421.85 219.75 401.25 C 218.38 399.64 216.18 398.49 215.80 396.27 C 169.49 350.13 123.44 303.71 77.02 257.68 C 77.02 257.09 77.02 255.91 77.02 255.32 C 123.44 209.29 169.49 162.88 215.79 116.73 C 216.18 114.50 218.38 113.35 219.75 111.75 C 240.24 91.15 260.95 70.75 281.32 50.03 Z" />
</g>
</svg>
