<?xml version="1.0" encoding="iso-8859-1"?>
<!-- Generator: Adobe Illustrator 18.0.0, SVG Export Plug-In . SVG Version: 6.00 Build 0)  -->
<!DOCTYPE svg PUBLIC "-//W3C//DTD SVG 1.1//EN" "http://www.w3.org/Graphics/SVG/1.1/DTD/svg11.dtd">
<svg xmlns="http://www.w3.org/2000/svg" xmlns:xlink="http://www.w3.org/1999/xlink" version="1.1" id="Capa_1" x="0px" y="0px" viewBox="0 0 297 297" style="enable-background:new 0 0 297 297;" xml:space="preserve" width="512px" height="512px">
<g>
	<path d="M148.5,190.718c9.881,0,17.918-8.038,17.918-17.919c0-9.88-8.037-17.918-17.918-17.918   c-9.881,0-17.918,8.038-17.918,17.918C130.582,182.68,138.619,190.718,148.5,190.718z" fill="#FFFFFF"/>
	<path d="M297,107.999c0-9.881-8.038-17.918-17.918-17.918c-9.881,0-17.919,8.037-17.919,17.918c0,3.205,0.856,6.209,2.337,8.815   l-16.17,16.17c-4.822-11.349-7.186-28.849-7.824-42.229c5.039-3.175,8.403-8.773,8.403-15.156c0-9.88-8.038-17.918-17.918-17.918   c-9.881,0-17.919,8.038-17.919,17.918c0,4.453,1.643,8.522,4.34,11.66c-10.464,18.023-25.075,35.371-34.143,45.427   c-7.97-16.629-16.955-49.719-22.527-75.554c4.067-3.287,6.676-8.309,6.676-13.933c0-9.881-8.037-17.918-17.918-17.918   c-9.881,0-17.918,8.037-17.918,17.918c0,5.624,2.609,10.646,6.676,13.933c-5.569,25.837-14.554,58.932-22.528,75.56   c-9.063-10.047-23.667-27.381-34.143-45.433c2.698-3.138,4.34-7.207,4.34-11.66c0-9.88-8.037-17.918-17.918-17.918   c-9.88,0-17.918,8.038-17.918,17.918c0,6.387,3.367,11.985,8.409,15.159c-0.629,13.379-2.99,30.878-7.824,42.232L33.5,116.815   c1.48-2.606,2.336-5.61,2.336-8.815c0-9.881-8.037-17.918-17.918-17.918C8.038,90.081,0,98.119,0,107.999   c0,7.24,4.324,13.475,10.519,16.3c6.352,32.257,14.764,78.529,14.764,89V261.9c0,5.422,4.396,9.818,9.817,9.818h226.8   c5.423,0,9.818-4.396,9.818-9.818v-48.601c0-10.469,8.41-56.742,14.766-89C292.676,121.474,297,115.24,297,107.999z    M44.357,155.443c3.835,3.833,10.05,3.833,13.886,0c9.319-9.321,14.089-26.038,16.529-41.044   c15.884,22.439,33.386,40.044,34.385,41.044c3.835,3.833,10.05,3.833,13.886,0c9.89-9.891,18.954-36.98,25.457-61.117   c6.503,24.137,15.567,51.227,25.457,61.117c1.842,1.84,4.339,2.875,6.943,2.875c2.604,0,5.101-1.035,6.942-2.875   c0.999-1,18.501-18.605,34.385-41.044c2.441,15.006,7.21,31.723,16.529,41.044c3.836,3.833,10.051,3.833,13.886,0l9.743-9.744   c-3.645,19.507-7.85,43.309-9.541,57.783H44.155c-1.691-14.475-5.896-38.276-9.54-57.783L44.357,155.443z M252.082,252.081H44.918   v-28.964h207.164V252.081z" fill="#FFFFFF"/>
</g>
<g>
</g>
<g>
</g>
<g>
</g>
<g>
</g>
<g>
</g>
<g>
</g>
<g>
</g>
<g>
</g>
<g>
</g>
<g>
</g>
<g>
</g>
<g>
</g>
<g>
</g>
<g>
</g>
<g>
</g>
</svg>
