<?xml version="1.0" ?><!DOCTYPE svg  PUBLIC '-//W3C//DTD SVG 1.1//EN'  'http://www.w3.org/Graphics/SVG/1.1/DTD/svg11.dtd'><svg enable-background="new 0 0 64 64" height="64px" id="Layer_1" version="1.1" viewBox="0 0 64 64" width="64px" xml:space="preserve" xmlns="http://www.w3.org/2000/svg" xmlns:xlink="http://www.w3.org/1999/xlink"><path d="M55.975,24.141c0-13.241-10.731-23.974-23.971-23.974C18.762,0.167,8.03,10.9,8.03,24.141  c-0.066,3.141,0.582,6.091,1.729,8.913c0.065,0.162,0.118,0.325,0.186,0.483c0.272,0.637,0.582,1.263,0.905,1.883  c0.028,0.052,0.049,0.106,0.078,0.158c3.609,6.847,10.141,12.962,16.968,19.119h-0.001c0,0,0.845,0.715,0,2.301l-2.359,4.43  c-0.027,0.051-0.999,2.132,0.881,2.405h12.035c0.741-0.125,1.89-0.573,0.926-2.224c0,0,0-0.003-0.005-0.003l-2.823-4.845  c0,0-0.807-1.283-0.004-1.966c2.151-1.814,5.529-4.697,6.775-5.929c4.486-4.605,9.241-10.604,11.425-17.018  c0.146-0.521,0.279-1.026,0.392-1.507c0.39-1.465,0.646-2.981,0.754-4.542C55.987,24.748,55.975,24.141,55.975,24.141z   M34.319,10.243c-0.102,0.852-0.638,0.958-0.854,0.965c-0.022,0-0.048,0-0.072,0.003c-0.01-0.003-0.021-0.003-0.021-0.003v0.001  c-0.83,0.041-1.668,0.15-2.507,0.343c-6.712,1.549-11.185,7.642-10.934,14.279c-0.001,0.013-0.007,0.02-0.007,0.033  c0.003,1.043-0.335,1.751-1.565,2.062c-0.83,0.21-1.308-0.453-1.536-0.91c-0.127-0.393-0.254-0.786-0.35-1.197  c-1.752-7.6,2.988-15.181,10.588-16.932c2.305-0.531,4.597-0.447,6.734,0.116C34.131,9.136,34.412,9.58,34.319,10.243z" fill="#ffffff"/></svg>