<?xml version="1.0" encoding="UTF-8" ?>
<!DOCTYPE svg PUBLIC "-//W3C//DTD SVG 1.1//EN" "http://www.w3.org/Graphics/SVG/1.1/DTD/svg11.dtd">
<svg width="43pt" height="65pt" viewBox="0 0 43 65" version="1.1" xmlns="http://www.w3.org/2000/svg">
<g id="#66666666">
<path fill="#666666" opacity="0.40" d=" M 18.75 0.00 L 24.19 0.00 C 30.06 0.87 35.45 4.41 38.29 9.66 C 41.68 15.34 40.54 22.16 40.91 28.44 C 42.01 29.72 43.13 31.11 42.88 32.92 C 42.94 43.61 42.80 54.31 42.90 65.00 L 0.12 65.00 C 0.24 54.31 0.09 43.62 0.15 32.93 C -0.17 31.06 1.07 29.74 2.25 28.49 C 2.56 23.12 1.70 17.53 3.62 12.36 C 5.98 5.90 11.94 1.04 18.75 0.00 M 9.18 13.29 C 6.96 18.39 7.95 24.10 7.79 29.50 C 16.98 29.56 26.16 29.53 35.35 29.51 C 35.38 25.69 35.48 21.85 35.27 18.03 C 34.80 11.69 29.55 5.91 23.13 5.38 C 17.39 4.56 11.46 8.00 9.18 13.29 M 15.48 38.37 C 14.49 41.34 16.41 43.94 18.34 45.98 C 18.42 50.56 18.42 55.15 18.34 59.73 C 20.32 59.69 22.29 59.74 24.26 59.59 C 24.13 55.07 24.16 50.55 24.21 46.03 C 26.74 43.94 28.89 40.39 26.84 37.21 C 24.61 32.48 16.75 33.31 15.48 38.37 Z" />
</g>
</svg>
