<?xml version="1.0" encoding="UTF-8" ?>
<!DOCTYPE svg PUBLIC "-//W3C//DTD SVG 1.1//EN" "http://www.w3.org/Graphics/SVG/1.1/DTD/svg11.dtd">
<svg width="450pt" height="450pt" viewBox="0 0 450 450" version="1.1" xmlns="http://www.w3.org/2000/svg">
<g id="#404040ff">
<path fill="#fff" opacity="1.00" d=" M 168.89 73.10 C 200.35 61.32 235.44 59.58 267.94 68.04 C 296.22 75.30 322.40 90.39 342.97 111.09 C 330.56 123.66 317.99 136.08 305.54 148.61 C 288.08 131.06 264.71 119.49 240.11 116.56 C 213.63 113.20 186.02 119.83 163.98 134.89 C 141.21 150.26 124.35 174.25 117.99 201.02 C 115.81 209.59 114.99 218.43 114.71 227.25 C 129.25 227.26 143.79 227.26 158.34 227.25 C 135.18 250.49 111.94 273.65 88.76 296.86 C 65.56 273.70 42.38 250.52 19.22 227.32 C 33.48 227.16 47.74 227.30 62.00 227.25 C 61.65 195.36 71.37 163.56 88.86 136.95 C 107.95 107.97 136.31 85.15 168.89 73.10 Z" />
<path fill="#fff" opacity="1.00" d=" M 292.66 221.75 C 315.83 198.51 339.05 175.34 362.25 152.14 C 385.43 175.33 408.67 198.46 431.78 221.72 C 417.52 221.78 403.26 221.72 389.00 221.75 C 389.35 253.43 379.75 285.03 362.48 311.53 C 347.75 334.04 327.49 352.93 303.91 365.89 C 276.39 381.15 244.37 388.09 212.99 385.82 C 173.72 383.29 135.69 365.87 108.03 337.90 C 120.47 325.35 132.99 312.86 145.52 300.40 C 163.14 318.22 186.96 329.79 211.88 332.55 C 238.06 335.64 265.24 328.97 287.02 314.11 C 309.76 298.76 326.60 274.81 332.99 248.08 C 335.18 239.48 336.01 230.61 336.29 221.75 C 321.75 221.74 307.21 221.75 292.66 221.75 Z" />
</g>
</svg>
