<?xml version="1.0" encoding="UTF-8" ?>
<!DOCTYPE svg PUBLIC "-//W3C//DTD SVG 1.1//EN" "http://www.w3.org/Graphics/SVG/1.1/DTD/svg11.dtd">
<svg width="512pt" height="512pt" viewBox="0 0 512 512" version="1.1" xmlns="http://www.w3.org/2000/svg">
<g id="#ffffffff">
<path fill="#ffffff" opacity="1.00" d=" M 79.86 50.01 C 130.14 50.01 180.42 49.97 230.70 50.03 C 252.24 71.94 274.09 93.55 295.82 115.27 C 296.05 115.77 296.50 116.76 296.73 117.26 C 341.10 161.56 385.40 205.93 429.75 250.24 C 431.46 251.95 433.11 253.74 434.97 255.30 C 434.97 255.90 434.97 257.10 434.97 257.70 C 388.53 303.70 342.52 350.16 296.18 396.27 C 296.08 396.62 295.89 397.31 295.79 397.66 C 274.17 419.50 252.21 441.02 230.70 462.97 C 180.42 463.03 130.14 462.99 79.86 462.99 C 79.94 462.58 80.09 461.75 80.17 461.34 C 126.36 415.10 172.63 368.93 218.79 322.66 C 218.89 322.31 219.08 321.62 219.18 321.27 C 240.87 299.67 262.51 278.01 284.13 256.33 C 262.19 235.12 240.93 213.16 219.18 191.73 C 218.95 191.23 218.49 190.24 218.27 189.74 C 172.21 143.74 126.19 97.69 80.17 51.66 C 80.09 51.25 79.94 50.42 79.86 50.01 Z" />
</g>
</svg>
