<?xml version="1.0" encoding="UTF-8" ?>
<!DOCTYPE svg PUBLIC "-//W3C//DTD SVG 1.1//EN" "http://www.w3.org/Graphics/SVG/1.1/DTD/svg11.dtd">
<svg width="488pt" height="488pt" viewBox="0 0 488 488" version="1.1" xmlns="http://www.w3.org/2000/svg">
<g id="#ffffffff">
<path fill="#ffffff" opacity="1.00" d=" M 378.48 76.69 C 389.59 74.59 401.59 77.47 410.31 84.72 C 420.16 92.51 425.70 105.31 424.75 117.81 C 423.82 134.66 410.71 149.78 394.22 153.21 C 382.88 155.78 370.48 152.95 361.43 145.65 C 350.78 137.40 345.06 123.33 346.97 109.99 C 348.84 93.63 362.25 79.47 378.48 76.69 Z" />
<path fill="#ffffff" opacity="1.00" d=" M 147.52 95.62 C 149.87 94.66 152.49 95.08 154.97 94.99 C 203.69 95.04 252.40 94.95 301.12 95.03 C 305.21 94.92 308.72 98.98 308.07 103.02 C 307.72 106.47 304.52 109.38 301.02 109.24 C 251.03 109.30 201.04 109.25 151.05 109.27 C 148.08 109.50 145.09 107.77 143.92 105.02 C 142.28 101.58 144.04 97.12 147.52 95.62 Z" />
<path fill="#ffffff" opacity="1.00" d=" M 271.05 136.94 C 294.04 130.58 318.94 134.60 340.12 145.00 C 355.82 152.41 369.85 163.49 386.75 168.20 C 398.46 171.59 411.39 171.38 422.64 166.44 C 433.66 161.70 442.61 153.16 449.57 143.54 C 452.16 139.82 455.75 136.69 460.12 135.30 C 471.13 131.49 485.52 138.26 487.64 150.19 C 488.79 156.86 484.60 162.64 480.64 167.52 C 466.42 185.96 446.96 201.17 424.08 206.91 C 407.32 211.27 389.44 210.28 372.95 205.20 C 359.71 228.02 347.05 251.16 334.95 274.60 C 352.26 283.72 368.06 295.40 383.44 307.43 C 390.01 312.40 394.29 319.62 398.45 326.57 C 408.86 344.74 416.94 364.11 425.95 382.99 C 428.11 387.34 429.00 392.49 427.44 397.18 C 423.65 408.84 408.07 414.91 397.57 408.36 C 393.33 405.88 390.85 401.45 388.94 397.09 C 382.19 382.76 375.95 368.20 368.65 354.14 C 364.63 346.90 360.98 338.88 353.93 334.06 C 335.16 320.06 315.14 307.29 293.06 299.18 C 276.10 320.48 250.10 334.24 222.99 336.51 C 202.86 338.32 182.24 333.44 164.98 322.94 C 159.49 319.57 155.49 313.51 155.53 306.96 C 155.31 295.29 166.12 284.51 177.92 285.60 C 184.76 285.89 190.04 290.72 196.31 292.81 C 207.69 297.18 220.70 296.56 231.86 291.81 C 245.66 286.07 257.02 275.56 265.50 263.41 C 269.90 257.24 273.11 250.35 276.54 243.61 C 288.02 220.93 299.51 198.23 312.19 176.19 C 301.12 172.71 288.93 171.84 277.81 175.61 C 266.85 179.16 257.55 186.64 250.29 195.43 C 247.11 199.15 244.70 203.68 240.42 206.30 C 230.23 212.92 214.85 208.32 209.79 197.32 C 207.42 192.24 208.43 186.14 211.56 181.62 C 225.92 160.96 246.40 143.57 271.05 136.94 Z" />
<path fill="#ffffff" opacity="1.00" d=" M 14.17 165.15 C 16.43 164.78 18.72 164.95 21.00 164.93 C 69.36 164.95 117.72 164.91 166.07 164.95 C 169.99 164.68 173.57 168.13 173.54 172.03 C 173.63 175.98 170.01 179.49 166.05 179.19 C 116.02 179.20 65.98 179.22 15.95 179.18 C 12.43 179.36 9.14 176.48 8.76 173.00 C 8.20 169.50 10.71 165.88 14.17 165.15 Z" />
<path fill="#ffffff" opacity="1.00" d=" M 60.34 246.39 C 62.74 245.29 65.46 245.76 68.01 245.66 C 115.35 245.67 162.69 245.68 210.04 245.65 C 212.93 245.68 216.23 245.29 218.57 247.38 C 221.92 250.07 221.87 255.76 218.45 258.37 C 216.67 259.91 214.22 260.04 211.98 260.01 C 162.63 259.97 113.27 260.03 63.91 259.98 C 61.04 260.11 58.10 258.54 56.94 255.85 C 55.26 252.46 56.86 247.91 60.34 246.39 Z" />
<path fill="#ffffff" opacity="1.00" d=" M 0.00 342.24 C 0.58 338.44 4.13 335.59 7.98 335.95 C 52.68 335.94 97.38 335.89 142.07 335.97 C 145.94 335.76 149.63 339.05 149.54 342.99 C 149.77 347.02 146.03 350.52 142.05 350.25 C 99.05 350.30 56.04 350.24 13.03 350.28 C 10.41 350.24 7.75 350.46 5.16 349.97 C 2.46 349.29 0.71 346.84 0.00 344.26 L 0.00 342.24 Z" />
</g>
</svg>
